<?xml version="1.0" encoding="UTF-8" standalone="no"?>
<svg
   xmlns:dc="http://purl.org/dc/elements/1.1/"
   xmlns:cc="http://creativecommons.org/ns#"
   xmlns:rdf="http://www.w3.org/1999/02/22-rdf-syntax-ns#"
   xmlns:svg="http://www.w3.org/2000/svg"
   xmlns="http://www.w3.org/2000/svg"
   version="1.1"
   id="logo"
   viewBox="0 0 170 18">
  <metadata
     id="metadata9">
    <rdf:RDF>
      <cc:Work
         rdf:about="">
        <dc:format>image/svg+xml</dc:format>
        <dc:type
           rdf:resource="http://purl.org/dc/dcmitype/StillImage" />
      </cc:Work>
    </rdf:RDF>
  </metadata>
  <defs
     id="defs7" />
  <path
     id="path2"
     d="M27.5,8.9c0,4-2.9,6.9-6.9,6.9c-4,0-6.9-2.9-6.9-6.9S16.6,2,20.6,2C24.6,2,27.6,4.9,27.5,8.9z M23.6,8.9         c0-2-1.2-3.3-3-3.3c-1.8,0-3,1.3-3,3.3s1.2,3.3,3,3.3C22.4,12.2,23.7,10.9,23.6,8.9z M39.5,2.4h-2.5c-0.3,0-0.6,0.3-0.6,0.6v5.8         l-4.5-6.1c-0.1-0.2-0.3-0.3-0.5-0.3h-2.7c-0.3,0-0.6,0.3-0.6,0.6v12.1c0,0.3,0.3,0.6,0.6,0.6h2.5c0.3,0,0.6-0.3,0.6-0.6v-6l4.7,6.3         c0.1,0.2,0.3,0.3,0.5,0.3h2.5c0.3,0,0.6-0.3,0.6-0.6V3C40.1,2.7,39.8,2.4,39.5,2.4z M46.7,7c-0.7-0.2-1.9-0.4-1.9-0.7         c0-0.6,0.8-0.6,1.1-0.6c1.2,0,2.3,0.4,3.1,1.2C49,6.9,49.2,7,49.4,7c0.2,0,0.3-0.1,0.4-0.2l1.4-1.9c0.2-0.3,0.2-0.6-0.1-0.8         c-1.3-1.2-3-1.8-5.1-1.8c-3,0-5.2,1.8-5.2,4.3c0,3.2,3,3.9,4.9,4.3c0.9,0.2,2,0.4,2,0.8c0,0.3-0.5,0.7-1.5,0.7         c-1.7,0-2.9-0.9-3.4-1.4c-0.1-0.1-0.3-0.2-0.5-0.2c-0.2,0-0.3,0.1-0.4,0.3L40.7,13c-0.2,0.2-0.2,0.6,0.1,0.8         c1.3,1.4,3.3,2.1,5.5,2.1c4,0,5.4-2.3,5.4-4.5C51.7,8.2,48.7,7.5,46.7,7z M63.7,2.5h-2.6c-0.3,0-0.6,0.3-0.6,0.6v7.1         c0,0.8-0.3,2.2-2.2,2.2c-1.4,0-2.2-0.8-2.2-2.2V3.1c0-0.3-0.3-0.6-0.6-0.6h-2.6c-0.3,0-0.6,0.3-0.6,0.6v7.3c0,3.5,2.3,5.6,6,5.6         c3.8,0,6-2.1,6-5.6V3.1C64.3,2.8,64,2.5,63.7,2.5z M79.1,2.3h-3.6c-0.2,0-0.4,0.2-0.6,0.4l-2.3,5.9l-2.4-5.9         c-0.1-0.2-0.3-0.4-0.6-0.4h-3.6c-0.3,0-0.6,0.3-0.6,0.6V15c0,0.3,0.3,0.6,0.6,0.6h2.5c0.3,0,0.6-0.3,0.6-0.6V9.7l2.2,5.5         c0.1,0.2,0.3,0.4,0.6,0.4h1.1c0.2,0,0.4-0.2,0.6-0.4l2.2-5.5V15c0,0.3,0.3,0.6,0.6,0.6h2.6c0.3,0,0.6-0.3,0.6-0.6V2.9         C79.8,2.6,79.5,2.3,79.1,2.3z M90,2.3h-8.5c-0.3,0-0.6,0.3-0.6,0.6V15c0,0.3,0.3,0.6,0.6,0.6H90c0.3,0,0.6-0.3,0.6-0.6v-2.3         c0-0.3-0.3-0.6-0.6-0.6h-5.4v-1.5h5.2c0.3,0,0.6-0.3,0.6-0.6V7.8c0-0.3-0.3-0.6-0.6-0.6h-5.2V5.8H90c0.3,0,0.6-0.3,0.6-0.6V2.9         C90.6,2.6,90.3,2.3,90,2.3z M102.5,15.1c0,0.3-0.3,0.6-0.6,0.6H99c-0.2,0-0.4-0.2-0.6-0.3l-2.2-4h-0.9V15c0,0.3-0.3,0.6-0.6,0.6         h-2.5c-0.3,0-0.6-0.3-0.6-0.6V2.9c0-0.3,0.3-0.6,0.6-0.6h5.6c2.7,0,4.7,1.8,4.7,4.5c0,2.1-1.1,3.4-2.3,3.9l2.3,3.9         C102.5,14.7,102.6,14.8,102.5,15.1z M98.6,6.8c0-0.7-0.7-1-1.2-1h-2.1v2h2.1C98,7.8,98.6,7.6,98.6,6.8z M115.9,15.4         c0,0.1,0,0.1-0.1,0.1c0,0.1-0.1,0.1-0.1,0.1h-1.3c-0.1,0-0.1,0-0.1-0.1l-1.1-2.8c-0.1-0.1-0.1-0.1-0.2-0.1h-6.8         c-0.1,0-0.1,0.1-0.1,0.1l-1.1,2.8c0,0-0.1,0.1-0.1,0.1h-1.3c-0.1,0-0.1,0-0.1-0.1c0,0,0-0.1,0-0.1l5.2-13c0-0.1,0.1-0.1,0.1-0.1h1.7         c0.1,0,0.1,0.1,0.1,0.1L115.9,15.4z M112.7,11.2l-2.9-7.3c0-0.1-0.1-0.1-0.1-0.1c-0.1,0-0.2,0.1-0.2,0.1l-2.9,7.3         c-0.1,0,0,0.1,0,0.1c0,0.1,0.1,0.1,0.1,0.1h5.8c0.1,0,0.1,0,0.1-0.1C112.7,11.3,112.7,11.2,112.7,11.2z M124.8,2.4h-8.3         c-0.1,0-0.1,0.1-0.1,0.1v13c0,0.1,0.1,0.1,0.1,0.1h1.1c0.1,0,0.1-0.1,0.1-0.1V9.6c0-0.1,0.1-0.2,0.2-0.2h6.8c0.1,0,0.1-0.1,0.1-0.1         V8.4c0-0.1-0.1-0.1-0.1-0.1h-6.8c-0.1,0-0.2-0.1-0.2-0.2V3.7c0-0.1,0.1-0.2,0.2-0.2h6.9c0.1,0,0.1-0.1,0.1-0.1V2.5         C124.9,2.4,124.9,2.3,124.8,2.4z M134.3,9.3V8.4c0-0.1-0.1-0.1-0.1-0.1h-6.8c-0.1,0-0.2-0.1-0.2-0.2V3.7c0-0.1,0.1-0.2,0.2-0.2h6.9         c0.1,0,0.2-0.1,0.2-0.2V2.5c0-0.1-0.1-0.1-0.2-0.1H126c-0.1,0-0.1,0.1-0.1,0.1v13c0,0.1,0.1,0.1,0.1,0.1h1.1c0.1,0,0.1-0.1,0.1-0.1         V9.6c0-0.1,0.1-0.2,0.2-0.2h6.8C134.2,9.4,134.3,9.4,134.3,9.3z M145.1,15.4c0,0.1,0,0.1-0.1,0.1c0,0.1-0.1,0.1-0.1,0.1h-1.3         c-0.1,0-0.1,0-0.1-0.1l-1.1-2.8c-0.1-0.1-0.1-0.1-0.2-0.1h-6.8c-0.1,0-0.1,0.1-0.1,0.1l-1.2,2.8c0,0-0.1,0.1-0.1,0.1h-1.3         c-0.1,0-0.1,0-0.1-0.1c0,0,0-0.1,0-0.1l5.3-13c0-0.1,0.1-0.1,0.1-0.1h1.7c0.1,0,0.1,0.1,0.1,0.1L145.1,15.4z M141.9,11.2l-2.9-7.3         c0-0.1-0.1-0.1-0.1-0.1s-0.1,0.1-0.1,0.1l-2.9,7.3c-0.1,0.1,0,0.1,0,0.2s0.1,0.1,0.1,0.1h5.8c0.1,0,0.1,0,0.1-0.1L141.9,11.2         L141.9,11.2z M147.5,2.4h-1.1c-0.1,0-0.1,0.1-0.1,0.1v13c0,0.1,0.1,0.1,0.1,0.1h1.1c0.1,0,0.1-0.1,0.1-0.1v-13         C147.6,2.4,147.5,2.3,147.5,2.4z M155.3,10.3l3.3,5c0,0,0,0.1,0,0.1c0,0.1-0.1,0.1-0.1,0.1h-1.3c-0.1,0-0.1,0-0.1-0.1l-3.4-5.3         c0-0.1-0.1-0.1-0.1-0.1h-2.7c-0.1,0-0.2,0.1-0.2,0.2v5.1c0,0.1-0.1,0.1-0.1,0.1h-1.1c-0.1,0-0.1-0.1-0.1-0.1v-13         c0-0.1,0.1-0.1,0.1-0.1h5.1c2.4,0,4.1,1.6,4.1,3.9c0,2.6-1.8,3.7-3.4,3.8c-0.1,0-0.1,0.1-0.1,0.1C155.2,10.2,155.2,10.2,155.3,10.3z         M154.4,9c1.7,0,2.9-1.2,2.9-2.8s-1.2-2.7-2.9-2.7h-3.5c-0.1,0-0.2,0.1-0.2,0.2v5.2c0,0.1,0.1,0.2,0.2,0.2V9         C150.9,9,154.4,9,154.4,9z M164.4,8c-1.7-0.5-3.4-0.9-3.4-2.4c0-1.4,1.2-2.3,2.9-2.3c1.5,0,2.9,0.5,3.8,1.4c0.1,0.1,0.1,0.1,0.1,0.1         c0.1,0,0.1-0.1,0.1-0.1l0.7-0.8c0.1-0.1,0.1-0.1,0-0.2c-1.2-1.1-2.7-1.7-4.5-1.7c-2.7,0-4.5,1.5-4.5,3.7c0,2.5,2.3,3.1,4.4,3.7         c1.8,0.5,3.7,1,3.7,2.7c0,1.2-0.8,2.5-3.3,2.5c-2,0-3.3-1-4.2-1.8c-0.1-0.1-0.1-0.1-0.1-0.1c-0.1,0-0.1,0-0.1,0.1l-0.7,0.8         c-0.1,0.1-0.1,0.1,0,0.2c0.8,0.9,2.4,1.9,4.9,1.9c4.5,0,4.9-3,4.9-3.9C169.1,9.3,166.7,8.6,164.4,8z M115.9,15.4         c0,0.1,0,0.1-0.1,0.1c0,0.1-0.1,0.1-0.1,0.1h-1.3c-0.1,0-0.1,0-0.1-0.1l-1.1-2.8c-0.1-0.1-0.1-0.1-0.2-0.1h-6.8         c-0.1,0-0.1,0.1-0.1,0.1l-1.1,2.8c0,0-0.1,0.1-0.1,0.1h-1.3c-0.1,0-0.1,0-0.1-0.1c0,0,0-0.1,0-0.1l5.2-13c0-0.1,0.1-0.1,0.1-0.1h1.7         c0.1,0,0.1,0.1,0.1,0.1L115.9,15.4z M112.7,11.2l-2.9-7.3c0-0.1-0.1-0.1-0.1-0.1c-0.1,0-0.2,0.1-0.2,0.1l-2.9,7.3         c-0.1,0,0,0.1,0,0.1c0,0.1,0.1,0.1,0.1,0.1h5.8c0.1,0,0.1,0,0.1-0.1C112.7,11.3,112.7,11.2,112.7,11.2z M124.8,2.4h-8.3         c-0.1,0-0.1,0.1-0.1,0.1v13c0,0.1,0.1,0.1,0.1,0.1h1.1c0.1,0,0.1-0.1,0.1-0.1V9.6c0-0.1,0.1-0.2,0.2-0.2h6.8c0.1,0,0.1-0.1,0.1-0.1         V8.4c0-0.1-0.1-0.1-0.1-0.1h-6.8c-0.1,0-0.2-0.1-0.2-0.2V3.7c0-0.1,0.1-0.2,0.2-0.2h6.9c0.1,0,0.1-0.1,0.1-0.1V2.5         C124.9,2.4,124.9,2.3,124.8,2.4z M134.3,2.4H126c-0.1,0-0.1,0.1-0.1,0.1v13c0,0.1,0.1,0.1,0.1,0.1h1.1c0.1,0,0.1-0.1,0.1-0.1V9.6         c0-0.1,0.1-0.2,0.2-0.2h6.8c0,0,0.1-0.1,0.1-0.1V8.4c0-0.1-0.1-0.1-0.1-0.1h-6.8c-0.1,0-0.2-0.1-0.2-0.2V3.7c0-0.1,0.1-0.2,0.2-0.2         h6.9c0.1,0,0.2-0.1,0.2-0.2V2.5C134.5,2.4,134.4,2.4,134.3,2.4z M145.1,15.4c0,0.1,0,0.1-0.1,0.1c0,0.1-0.1,0.1-0.1,0.1h-1.3         c-0.1,0-0.1,0-0.1-0.1l-1.1-2.8c-0.1-0.1-0.1-0.1-0.2-0.1h-6.8c-0.1,0-0.1,0.1-0.1,0.1l-1.2,2.8c0,0-0.1,0.1-0.1,0.1h-1.3         c-0.1,0-0.1,0-0.1-0.1c0,0,0-0.1,0-0.1l5.3-13c0-0.1,0.1-0.1,0.1-0.1h1.7c0.1,0,0.1,0.1,0.1,0.1L145.1,15.4z M141.9,11.2l-2.9-7.3         c0-0.1-0.1-0.1-0.1-0.1s-0.1,0.1-0.1,0.1l-2.9,7.3c-0.1,0.1,0,0.1,0,0.2s0.1,0.1,0.1,0.1h5.8c0.1,0,0.1,0,0.1-0.1L141.9,11.2         L141.9,11.2z M147.5,2.4h-1.1c-0.1,0-0.1,0.1-0.1,0.1v13c0,0.1,0.1,0.1,0.1,0.1h1.1c0.1,0,0.1-0.1,0.1-0.1v-13         C147.6,2.4,147.5,2.3,147.5,2.4z M155.3,10.3l3.3,5c0,0,0,0.1,0,0.1c0,0.1-0.1,0.1-0.1,0.1h-1.3c-0.1,0-0.1,0-0.1-0.1l-3.4-5.3         c0-0.1-0.1-0.1-0.1-0.1h-2.7c-0.1,0-0.2,0.1-0.2,0.2v5.1c0,0.1-0.1,0.1-0.1,0.1h-1.1c-0.1,0-0.1-0.1-0.1-0.1v-13         c0-0.1,0.1-0.1,0.1-0.1h5.1c2.4,0,4.1,1.6,4.1,3.9c0,2.6-1.8,3.7-3.4,3.8c-0.1,0-0.1,0.1-0.1,0.1C155.2,10.2,155.2,10.2,155.3,10.3z         M154.4,9c1.7,0,2.9-1.2,2.9-2.8s-1.2-2.7-2.9-2.7h-3.5c-0.1,0-0.2,0.1-0.2,0.2v5.2c0,0.1,0.1,0.2,0.2,0.2V9         C150.9,9,154.4,9,154.4,9z M164.4,8c-1.7-0.5-3.4-0.9-3.4-2.4c0-1.4,1.2-2.3,2.9-2.3c1.5,0,2.9,0.5,3.8,1.4c0.1,0.1,0.1,0.1,0.1,0.1         c0.1,0,0.1-0.1,0.1-0.1l0.7-0.8c0.1-0.1,0.1-0.1,0-0.2c-1.2-1.1-2.7-1.7-4.5-1.7c-2.7,0-4.5,1.5-4.5,3.7c0,2.5,2.3,3.1,4.4,3.7         c1.8,0.5,3.7,1,3.7,2.7c0,1.2-0.8,2.5-3.3,2.5c-2,0-3.3-1-4.2-1.8c-0.1-0.1-0.1-0.1-0.1-0.1c-0.1,0-0.1,0-0.1,0.1l-0.7,0.8         c-0.1,0.1-0.1,0.1,0,0.2c0.8,0.9,2.4,1.9,4.9,1.9c4.5,0,4.9-3,4.9-3.9C169.1,9.3,166.7,8.6,164.4,8z M13.2,11.5L11,10.5         c-0.3-0.2-0.7,0-0.8,0.3c-0.4,0.9-1.3,1.4-2.3,1.4c-1.8,0-3.2-1.4-3.2-3.3s1.3-3.3,3.2-3.3C9,5.5,9.8,6.3,10.2,7         c0.2,0.3,0.6,0.4,0.8,0.3l2.2-1.1c0.2-0.1,0.3-0.2,0.3-0.4s0.1-0.3-0.1-0.5C12.7,3.8,11,2,7.9,2c-4.1,0-7,2.9-7,6.9s2.9,6.9,7,6.9         c2.4,0,4.4-1.1,5.6-3.3c0.1-0.2,0.1-0.3,0.1-0.5C13.5,11.8,13.4,11.6,13.2,11.5z M27.5,8.9c0,4-2.9,6.9-6.9,6.9         c-4,0-6.9-2.9-6.9-6.9S16.6,2,20.6,2C24.6,2,27.6,4.9,27.5,8.9z M23.6,8.9c0-2-1.2-3.3-3-3.3c-1.8,0-3,1.3-3,3.3s1.2,3.3,3,3.3         C22.4,12.2,23.7,10.9,23.6,8.9z M39.5,2.4h-2.5c-0.3,0-0.6,0.3-0.6,0.6v5.8l-4.5-6.1c-0.1-0.2-0.3-0.3-0.5-0.3h-2.7         c-0.3,0-0.6,0.3-0.6,0.6v12.1c0,0.3,0.3,0.6,0.6,0.6h2.5c0.3,0,0.6-0.3,0.6-0.6v-6l4.7,6.3c0.1,0.2,0.3,0.3,0.5,0.3h2.5         c0.3,0,0.6-0.3,0.6-0.6V3C40.1,2.7,39.8,2.4,39.5,2.4z M46.7,7c-0.7-0.2-1.9-0.4-1.9-0.7c0-0.6,0.8-0.6,1.1-0.6         c1.2,0,2.3,0.4,3.1,1.2C49,6.9,49.2,7,49.4,7c0.2,0,0.3-0.1,0.4-0.2l1.4-1.9c0.2-0.3,0.2-0.6-0.1-0.8c-1.3-1.2-3-1.8-5.1-1.8         c-3,0-5.2,1.8-5.2,4.3c0,3.2,3,3.9,4.9,4.3c0.9,0.2,2,0.4,2,0.8c0,0.3-0.5,0.7-1.5,0.7c-1.7,0-2.9-0.9-3.4-1.4         c-0.1-0.1-0.3-0.2-0.5-0.2c-0.2,0-0.3,0.1-0.4,0.3L40.7,13c-0.2,0.2-0.2,0.6,0.1,0.8c1.3,1.4,3.3,2.1,5.5,2.1c4,0,5.4-2.3,5.4-4.5         C51.7,8.2,48.7,7.5,46.7,7z M63.7,2.5h-2.6c-0.3,0-0.6,0.3-0.6,0.6v7.1c0,0.8-0.3,2.2-2.2,2.2c-1.4,0-2.2-0.8-2.2-2.2V3.1         c0-0.3-0.3-0.6-0.6-0.6h-2.6c-0.3,0-0.6,0.3-0.6,0.6v7.3c0,3.5,2.3,5.6,6,5.6c3.8,0,6-2.1,6-5.6V3.1C64.3,2.8,64,2.5,63.7,2.5z         M79.1,2.3h-3.6c-0.2,0-0.4,0.2-0.6,0.4l-2.3,5.9l-2.4-5.9c-0.1-0.2-0.3-0.4-0.6-0.4h-3.6c-0.3,0-0.6,0.3-0.6,0.6V15         c0,0.3,0.3,0.6,0.6,0.6h2.5c0.3,0,0.6-0.3,0.6-0.6V9.7l2.2,5.5c0.1,0.2,0.3,0.4,0.6,0.4h1.1c0.2,0,0.4-0.2,0.6-0.4l2.2-5.5V15         c0,0.3,0.3,0.6,0.6,0.6h2.6c0.3,0,0.6-0.3,0.6-0.6V2.9C79.8,2.6,79.5,2.3,79.1,2.3z M90,5.8c0.3,0,0.6-0.3,0.6-0.6V2.9         c0-0.3-0.3-0.6-0.6-0.6h-8.5c-0.3,0-0.6,0.3-0.6,0.6V15c0,0.3,0.3,0.6,0.6,0.6H90c0.3,0,0.6-0.3,0.6-0.6v-2.3c0-0.3-0.3-0.6-0.6-0.6         h-5.4v-1.5h5.2c0.3,0,0.6-0.3,0.6-0.6V7.8c0-0.3-0.3-0.6-0.6-0.6h-5.2V5.8H90z M102.5,15.1c0,0.3-0.3,0.6-0.6,0.6H99         c-0.2,0-0.4-0.2-0.6-0.3l-2.2-4h-0.9V15c0,0.3-0.3,0.6-0.6,0.6h-2.5c-0.3,0-0.6-0.3-0.6-0.6V2.9c0-0.3,0.3-0.6,0.6-0.6h5.6         c2.7,0,4.7,1.8,4.7,4.5c0,2.1-1.1,3.4-2.3,3.9l2.3,3.9C102.5,14.7,102.6,14.8,102.5,15.1z M98.6,6.8c0-0.7-0.7-1-1.2-1h-2.1v2h2.1         C98,7.8,98.6,7.6,98.6,6.8z"
     class="ca-icon__colored-fill"
     fill="#026FA1" />
</svg>
